<?xml version="1.0" encoding="UTF-8"?><svg id="Capa_1" xmlns="http://www.w3.org/2000/svg" viewBox="0 0 667.1 492.77"><defs><style>.cls-1{fill:#1d1d1b;}.cls-1,.cls-2,.cls-3{stroke-width:0px;}.cls-4{fill:none;stroke:#1d1d1b;stroke-miterlimit:10;stroke-width:9.96px;}.cls-2{fill:#000;}.cls-3{fill:#fff;}</style></defs><path class="cls-2" d="M590.77,55.02c0-10.8-2.78-13.61-13.47-13.61-85.63-.03-171.26-.06-256.89-.08-80.71-.01-161.41,0-242.12,0q-6.66,0-6.64-6.85c0-8.26.1-16.52-.08-24.78-.13-6.11-3.39-9.44-9.46-9.63-4.43-.14-8.92-.04-13.32.49-14.73,1.75-28.29,6.19-37.96,18.38C2.18,29.84.12,42.74.12,56.18c0,48.61.01,97.23,0,145.84-.03,79.91-.23,159.82-.03,239.73.05,20.11,10.14,34.6,27.98,43.65,10.74,5.45,22.33,6.96,34.22,6.95,45.76-.02,91.54.92,137.29,0,11.76-.24,30.73-.45,54.46.11,30.75-.81,61.5-1.62,92.24-2.43,128.45.74,220.3,1.45,231.08,2.3,1.55.12,7.29.71,10.72-2.75,1.98-2,2.68-5.27,2.68-10.39,0-141.39,0-282.79,0-424.18ZM53.09,188.48c-.05,85.15-.16,170.3-.08,255.44,0,5.22-.94,7.52-5.85,7.75-9.04.42-17.38,3.95-25.04,9.52-.53.39-1.09.75-1.68,1.02-.26.12-.6-.01-1.59-.07v-5.73c0-131.58,0-263.15.02-394.73,0-3.66.01-7.37.48-10.97,2.45-18.68,11.68-28.93,27.92-31.29,5.69-.82,5.89-.63,5.89,6.09-.02,54.32-.04,108.64-.07,162.96Z"/><rect class="cls-3" x="77.59" y="54.77" width="498.27" height="414.29" rx="24.52" ry="24.52"/><g id="toldo"><path class="cls-2" d="M255.54,194.52c12.5.99,25.04,1.51,37.56,2.26,6.67.4,13.35.57,20.02.7,12.48.25,24.97.31,37.46.32,19.82.03,39.65-.09,59.47-.26,28.89-.25,57.77-.62,86.66-1.05,4.26-.06,8.52-.13,12.78-.19l-4.19-10.12c-15.42,17.13-30.72,34.41-45.27,52.3-4.96,6.09-9.82,12.27-14.48,18.59-.91,1.23-1.81,2.47-2.7,3.72-.38.53-.75,1.06-1.13,1.58-.24.33-.47.65-.71.97-.9,1.22.6-.72-.25.32-1.49,1.83-3.07,3.59-4.78,5.23-.96.92-1.97,1.79-2.99,2.64-.88.73-.34.28-.14.13-.31.24-.62.47-.94.7-.74.53-1.49,1.04-2.26,1.53-1.23.79-2.5,1.51-3.81,2.15-.34.17-.69.32-1.03.48-.16.07-1.05.42-.15.07-.71.28-1.41.54-2.13.78-2.9.97-5.88,1.61-8.9,2.07-1.2.18-.4.05-.14.02-.38.05-.77.09-1.15.13-.77.08-1.54.15-2.31.22-1.55.12-3.11.21-4.66.26-3.11.11-6.21.11-9.32.1-14.59-.07-29.19-.17-43.78-.25-29.15-.17-58.29-.33-87.44-.5-29.15-.17-58.29-.33-87.44-.5-3.66-.02-7.32-.04-10.97-.06l4.19,10.12c13.99-17.12,28.63-33.69,43.71-49.86,12.47-13.37,25.21-26.49,38.23-39.32,2.38-2.35,4.77-4.69,7.18-7,2.24-2.15,2.33-6.25,0-8.39s-5.99-2.3-8.39,0c-7.1,6.82-14.06,13.79-20.96,20.81-15.85,16.11-31.33,32.59-46.26,49.56-7.45,8.47-14.76,17.08-21.9,25.81-1.55,1.9-2.23,4.1-1.23,6.48.91,2.16,3.04,3.63,5.42,3.65,29.49.17,58.98.34,88.47.51s58.98.34,88.47.51c14.63.08,29.26.17,43.89.25,12.97.07,26.82.99,39.25-3.46,10.92-3.9,19.45-11.67,26.07-21,1.81-2.55,3.66-5.07,5.54-7.57.53-.7,1.05-1.39,1.58-2.08.24-.31.48-.62.72-.93.45-.6-.76.98-.3.39.18-.23.35-.46.53-.69,1.19-1.53,2.39-3.05,3.59-4.57,13.53-17.01,27.88-33.37,42.35-49.59,2.36-2.64,4.73-5.28,7.1-7.92,3.32-3.69,1.17-10.2-4.19-10.12-30.2.46-60.4.87-90.6,1.16-20.76.2-41.53.34-62.29.35-13.3,0-26.61-.04-39.91-.26-7.38-.12-14.76-.28-22.13-.68-12.54-.69-25.07-1.5-37.61-2.26-.47-.03-.94-.05-1.41-.09-3.1-.24-6.07,2.9-5.93,5.93.15,3.42,2.61,5.67,5.93,5.93Z"/><path class="cls-2" d="M159.93,289.82c.05,6.56.1,13.11.15,19.67.02,3.17,2.7,5.98,5.93,5.93,34.06-.51,68.12-.84,102.18-.96,34.15-.13,68.29-.06,102.43.2,19.06.15,38.12.36,57.18.62,3.36.05,5.73-2.76,5.93-5.93.59-9.18,1.18-18.35,1.78-27.53.2-3.1-2.87-6.07-5.93-5.93-3.38.15-5.72,2.61-5.93,5.93-.59,9.18-1.18,18.35-1.78,27.53l5.93-5.93c-33.97-.48-67.94-.76-101.91-.86-34.18-.09-68.37,0-102.55.31-19.11.17-38.22.39-57.32.68l5.93,5.93c-.05-6.56-.1-13.11-.15-19.67-.02-3.1-2.71-6.07-5.93-5.93s-5.96,2.61-5.93,5.93h0Z"/><path class="cls-2" d="M138.9,280.09c3.42-3.52,6.83-7.03,10.25-10.55l24.43-25.14,29.71-30.58c8.51-8.76,17.02-17.52,25.54-26.29,4.16-4.28,8.42-8.48,12.48-12.85.06-.06.11-.12.17-.18,1.44-1.48,1.59-4.13,0-5.59s-4.05-1.58-5.59,0c-3.42,3.52-6.83,7.03-10.25,10.55-8.14,8.38-16.28,16.76-24.43,25.14l-29.71,30.58c-8.51,8.76-17.02,17.52-25.54,26.29-4.16,4.28-8.42,8.48-12.48,12.85-.06.06-.11.12-.17.18-1.44,1.48-1.59,4.13,0,5.59s4.05,1.58,5.59,0h0Z"/><path class="cls-2" d="M225.35,175.65h23.99c2.07,0,4.05-1.82,3.95-3.95s-1.74-3.95-3.95-3.95h-23.99c-2.07,0-4.05,1.82-3.95,3.95s1.74,3.95,3.95,3.95h0Z"/><path class="cls-2" d="M127.4,281.48h20.42c2.07,0,4.05-1.82,3.95-3.95s-1.74-3.95-3.95-3.95h-20.42c-2.07,0-4.05,1.82-3.95,3.95s1.74,3.95,3.95,3.95h0Z"/><path class="cls-2" d="M154.47,179.69l1.17-9.81c.1-.84-.47-1.94-1.04-2.51-.62-.62-1.63-1.08-2.51-1.04s-1.87.34-2.51,1.04l-.56.72c-.32.55-.48,1.15-.48,1.79l-1.17,9.81c-.1.84.47,1.94,1.04,2.51.62.62,1.63,1.08,2.51,1.04s1.87-.34,2.51-1.04l.56-.72c.32-.55.48-1.15.48-1.79h0Z"/><path class="cls-2" d="M160.12,181.94c-1.84,3.33-3.79,7.05-3.46,10.99s2.52,7.88,6.59,9.13c3.45,1.06,7.66-.23,9.98-2.97,2.59-3.06,3.33-7.48,1.94-11.25-1.48-4.01-4.69-7.09-8.58-8.77-.91-.39-1.74-.63-2.74-.36-.82.23-1.72.86-2.12,1.63-.81,1.53-.55,4.07,1.27,4.86.57.25,1.13.52,1.67.82.25.14.5.29.74.45.14.09.28.18.41.28.1.07.62.53.24.17s.3.27.4.36c.24.22.47.45.7.7.11.12.22.25.33.37.06.07.32.41.03.02-.31-.4.01.03.09.14.12.17.23.34.33.52.15.25.27.51.41.76.24.42-.21-.62-.06-.17.04.12.09.23.13.35.11.31.19.63.27.96.03.12.04.4.09.49-.09-.15-.06-.71-.04-.2.02.33.03.66.02.99,0,.11-.06.41-.03.49,0-.02.13-.72.04-.33-.07.28-.11.56-.19.84-.05.16-.1.31-.15.46-.23.72.25-.42.02-.06-.16.23-.28.5-.43.74-.35.55.06-.14.14-.18-.08.04-.22.24-.29.32-.11.11-.73.65-.3.29s.03-.04-.09.03c-.15.1-.32.18-.47.27-.52.32.69-.23-.05.03-.27.09-.55.17-.84.23-.79.16.61.02-.02,0-.14,0-.29,0-.43,0s-.79-.07-.16,0-.19-.08-.36-.12c-.41-.08,0-.23.25.13-.04-.05-.35-.18-.38-.19-.09-.05-.18-.12-.28-.17-.4-.21.5.47.18.15-.23-.23-.45-.51-.7-.72.02.02.38.59.23.27-.07-.13-.16-.25-.23-.38-.06-.1-.1-.2-.16-.3-.29-.53.08.14.09.23-.02-.26-.21-.61-.27-.87-.03-.11-.05-.22-.08-.34-.15-.73.09.06,0,.15.07-.06-.05-.91-.05-1.04,0-.12,0-.23,0-.35,0-.07.1-.79,0-.24s.02-.07.04-.2c.04-.23.1-.46.15-.69.09-.37.2-.73.33-1.08.06-.18.13-.35.19-.53.31-.86-.2.4.02-.07.18-.39.36-.78.55-1.16.39-.77.8-1.52,1.22-2.27.9-1.62.45-3.95-1.27-4.86s-3.9-.46-4.86,1.27h0Z"/><path class="cls-2" d="M192.41,175.39c-3.31-.41-6.62-.66-9.93-.17-1.91.28-3.85.96-5.2,2.41-1,1.08-1.5,2.37-1.37,3.84.23,2.68.99,5.31,1.73,7.88.49,1.68,2.56,3.21,4.37,2.48.79-.32,1.6-.6,2.44-.78.17-.04,1.05-.18.4-.1.43-.05.86-.08,1.3-.08.31,0,.62.02.93.03.95.03-.67-.17.24.02.65.14,1.26.31,1.88.53-.82-.29-.07,0,.1.08.25.13.48.34.74.46.22.15.13.09-.24-.19.12.1.23.2.34.31.04.04.42.49.45.49-.33-.44-.39-.5-.18-.19.06.09.11.18.16.27.13.24.08.12-.14-.38.05.14.1.28.14.42.25.66.04-.69.02.03,0,.13-.11,1.09,0,.55.13-.58-.14.46-.17.56-.07.22-.45.89-.05.17-.14.25-.26.5-.41.74-.1.16-.21.32-.32.47.27-.34.27-.35.01-.04-.21.2-.42.41-.61.62-.52.55.4-.19-.2.16-.34.19-.66.4-1.01.56.55-.26.09-.06-.22.03-.27.08-.55.13-.83.18.93-.17-.26-.02-.47-.03s-1.04-.15-.19.02c-.28-.06-.56-.11-.84-.18-.11-.03-1.08-.4-.67-.21s-.54-.31-.62-.36c-.11-.07-.82-.63-.26-.14-.31-.27-.61-.55-.89-.85-1.28-1.36-3.75-1.38-5.02,0-1.33,1.45-1.36,3.57,0,5.02,4.6,4.89,12.9,5.17,17.23-.25,2-2.5,3.36-5.97,2.29-9.17-.99-2.98-3.41-4.9-6.25-6.01-3.46-1.34-7.58-1-10.97.38l4.37,2.48c-.42-1.46-.83-2.92-1.16-4.4-.11-.47-.21-.95-.29-1.43-.03-.15-.05-.29-.07-.44-.1-.58.09,1.09.05.37s.21-1.24-.14.1c.11-.41-.27.69-.34.77.05-.06.08-.15.12-.22.33-.54-.62.73-.29.37.63-.71-.65.32-.1.04.11-.06.25-.13.35-.2.53-.37-.86.29-.32.13.34-.1.67-.22,1.01-.3.23-.05.46-.08.69-.13.69-.15-.92.08-.17.02,2.88-.23,5.73-.01,8.59.34,1.85.23,3.63-1.8,3.55-3.55-.09-2.12-1.57-3.31-3.55-3.55h0Z"/><path class="cls-2" d="M275.89,173.62l6.36.05,17.22.15,25.45.22c10.35.09,20.69.18,31.04.27,11.33.1,22.66.19,34,.29s22.96.2,34.44.3c10.67.09,21.33.18,32,.28l27.04.23,19.45.17c3.07.03,6.15.11,9.23.08.13,0,.27,0,.4,0,2.07.02,4.05-1.83,3.95-3.95s-1.74-3.93-3.95-3.95l-6.36-.05-17.22-.15-25.45-.22c-10.35-.09-20.69-.18-31.04-.27-11.33-.1-22.66-.19-34-.29s-22.96-.2-34.44-.3c-10.67-.09-21.33-.18-32-.28l-27.04-.23c-6.48-.06-12.97-.11-19.45-.17-3.07-.03-6.15-.11-9.23-.08-.13,0-.27,0-.4,0-2.07-.02-4.05,1.83-3.95,3.95s1.74,3.93,3.95,3.95h0Z"/><path class="cls-2" d="M293.1,174.39c-8.25-2.15-15.85-5.02-23.31-8.82l-.94,7.23c14.06-3.54,27.87-8.02,41.32-13.42,1.91-.77,3.47-2.67,2.76-4.86-.6-1.85-2.81-3.59-4.86-2.76-13.46,5.4-27.26,9.88-41.32,13.42-3.19.8-3.99,5.67-.94,7.23,8.03,4.09,16.48,7.35,25.2,9.62,2,.52,4.38-.66,4.86-2.76s-.62-4.31-2.76-4.86h0Z"/><path class="cls-2" d="M393.69,132.53c.13-.09.26-.17.4-.25.35-.17.27-.15-.21.07-.02-.1.88-.18.9-.24-.56.07-.64.08-.25.05.16,0,.31,0,.47,0,.39.03.31.01-.24-.06.16.02.31.06.46.09.15.04.3.08.45.13.36.13.3.1-.19-.1.04-.03.82.43.82.46-.4-.33-.46-.37-.17-.13.12.1.23.21.33.32.25.29.21.23-.12-.18.09.13.17.26.25.4.17.34.15.28-.06-.2.06.15.1.3.14.46.08.39.08.31,0-.24.02.16.03.32.03.48,0,.16,0,.32-.01.48.09-.55.1-.62.03-.23-.04.15-.12.86-.27.93.21-.47.23-.54.06-.19-.07.14-.15.28-.24.42-.22.32-.17.27.13-.13-.1.12-.21.24-.32.36-.11.11-.23.22-.35.33.41-.3.46-.35.14-.13-.13.09-.27.16-.42.24.49-.19.55-.22.18-.08-1.75.61-3.1,2.46-2.48,4.37.58,1.79,2.46,3.05,4.37,2.48.7-.21,1.4-.42,2.12-.59.35-.08.71-.17,1.07-.22-.63.1.37-.02.5-.02.23,0,1.1.06.41-.05.27.04.52.12.78.18.79.18-.55-.35.15.04.06.03.69.34.68.42-.33-.26-.4-.31-.21-.14.1.09.19.18.27.28-.25-.35-.31-.42-.17-.2.07.11.14.22.19.34-.16-.41-.2-.49-.12-.24.04.13.07.26.09.4-.06-.46-.08-.55-.08-.28,0,.28.01.18.06-.3-.02.13-.05.25-.09.38-.08.25-.04.17.13-.24.03.02-.38.67-.39.7-.43.7.47-.44-.14.15-.21.2-.41.4-.62.59-.53.49.48-.25-.21.15-.25.14-.49.31-.74.45s-.51.26-.76.38c.59-.28-.12.04-.34.11-.62.22-1.26.42-1.9.57-.32.08-.65.15-.97.21-.16.03-1.11.18-.37.08-1.26.17-2.54.19-3.81.1-.11,0-1.08-.1-.68-.05s-.56-.1-.67-.12c-.71-.13-1.4-.31-2.09-.52-1.78-.54-3.95.64-4.37,2.48s.58,3.79,2.48,4.37c3.71,1.12,7.61,1.24,11.4.51s7.31-2.37,9.6-5.44c2.61-3.51,1.77-8.14-1.71-10.69s-7.65-1.76-11.4-.63l1.89,6.85c5.11-1.79,7.8-7.77,5.3-12.7-2.25-4.46-8.59-6.02-12.73-3.33-1.55,1.01-2.35,3.19-1.27,4.86,1,1.55,3.19,2.36,4.86,1.27h0Z"/><path class="cls-2" d="M415.36,126.36c.39-3.27.78-6.54,1.17-9.81.1-.84-.47-1.94-1.04-2.51-.62-.62-1.63-1.08-2.51-1.04s-1.87.34-2.51,1.04l-.56.72c-.32.55-.48,1.15-.48,1.79-.39,3.27-.78,6.54-1.17,9.81-.1.84.47,1.94,1.04,2.51.62.62,1.63,1.08,2.51,1.04s1.87-.34,2.51-1.04l.56-.72c.32-.55.48-1.15.48-1.79h0Z"/><path class="cls-2" d="M130.12,182.62c.69-.37-.53.07.16-.08.44-.09.69-.1.11-.08.27-.01.54,0,.81-.01.76-.02-.54-.2.13.03.26.09.53.15.79.24-.79-.25-.03,0,.16.11.25.14.48.29.72.45-.67-.44,0,.02.16.16.21.2.39.41.58.62-.53-.6,0,.02.1.2.17.29.36.73.14.16.11.28.2.57.27.86.05.21.13,1,.09.37.02.33.03.66.02.99,0,.21-.12,1,0,.37-.07.38-.16.76-.27,1.14-.03.12-.32.99-.21.69s-.26.54-.32.66c-.16.3-.33.6-.51.89-.07.11-.57.85-.41.62s-.39.46-.48.56c-.23.26-.47.5-.72.74-.27.25-.54.5-.82.74-.14.12-.28.24-.43.35.19-.15.18-.15-.01,0-2.46,1.77-5.24,3-7.99,4.21-1.61.71-2.07,2.97-1.45,4.43.72,1.72,2.42,2.37,4.19,2.06.4-.07.8-.14,1.21-.21.27-.04.54-.08.81-.12-.2.03-.18.03.07,0,.81-.1,1.62-.18,2.44-.24,1.7-.12,3.4-.16,5.1-.12,3.5.1,6.15.46,9.55,1.26,1.8.43,3.93-.56,4.37-2.48s-.55-3.91-2.48-4.37c-7.56-1.79-15.3-1.95-22.94-.57l2.74,6.49c3.57-1.57,7.03-3.22,10.01-5.79s5.18-6.41,5.62-10.48c.41-3.84-1.19-7.52-4.23-9.86s-7.15-2.96-10.63-1.1c-1.64.87-2.28,3.29-1.27,4.86,1.08,1.67,3.1,2.21,4.86,1.27h0Z"/><path class="cls-2" d="M426.64,124.28c-3.36,3.56-6.63,7.62-7.06,12.68-.38,4.5,2.28,8.78,6.32,10.71s9.65,1.86,13.05-1.61c1.95-1.99,2.71-4.94,1.85-7.61s-2.86-4.72-5.5-5.71c-2.89-1.08-6.1-.54-8.83.71-2.54,1.16-4.64,3.12-6.64,5.03-1.35,1.28-1.39,3.74,0,5.02s3.58,1.37,5.02,0c.64-.61,1.28-1.22,1.95-1.8.16-.14.32-.27.48-.4.07-.06.59-.47.25-.21s.18-.13.26-.19c.21-.15.42-.29.64-.43.39-.25.8-.48,1.21-.69.1-.05.69-.28.27-.13s.18-.05.28-.08c.39-.12.78-.19,1.17-.29.52-.13-.81-.02.1,0,.25,0,.49-.02.74,0,.13,0,.73.1.26,0s.14.05.25.08c.1.03.71.2.27.06s.11.06.22.12l.11.06c.32.21.28.17-.11-.13.09.03.32.29.37.33.06.06.3.36.34.37-.2-.02-.4-.59-.06,0,.43.74-.11-.53.13.28.22.73.03-.11.04-.11.02,0,.03.51.02.48.07.59-.16-.3.06-.23.04.01-.16.47-.12.47.03,0,.36-.85.04-.16-.27.58.43-.3-.1.13-.14.11-.27.25-.4.37.13-.11.58-.35.05-.08-.16.08-.32.18-.48.27-.38.21-.07.19.09-.03-.11.15-.7.22-.89.27.03,0-.45.08-.45.09.52-.06.65-.08.37-.05-.12.01-.23.02-.35.03-.31.02-.62.01-.93,0-.07,0-.45-.06-.46-.04.05-.05.89.18.25.02-.3-.08-.6-.13-.9-.22-.15-.05-.29-.1-.44-.15-.75-.23.68.37,0,0-.27-.15-.55-.28-.81-.44-.13-.08-.26-.17-.39-.25-.58-.36.2.12.17.14-.04.03-.63-.57-.68-.62-.11-.11-.2-.23-.31-.33-.51-.52.34.58,0,0-.15-.26-.31-.52-.46-.78-.33-.58.13.2.08.22,0,0-.13-.38-.15-.43-.04-.15-.07-.3-.12-.45-.26-.86,0,.48-.03-.05-.02-.42-.03-.83-.02-1.26,0-.8-.01.14-.03.12-.05-.05.15-.75.17-.82.12-.46.27-.9.44-1.34-.05.13-.31.64-.01.06.11-.22.22-.43.33-.65.21-.39.44-.77.68-1.14.27-.42.56-.83.86-1.23.4-.54.08-.11,0,0,.19-.24.38-.47.58-.7.64-.76,1.31-1.5,2-2.22,1.27-1.35,1.44-3.7,0-5.02s-3.66-1.44-5.02,0h0Z"/><path class="cls-2" d="M452.29,127.63l.08-.06-.72.56c.28-.21.58-.38.9-.52l-.85.36c.35-.14.71-.23,1.08-.29l-.94.13c.44-.05.88-.05,1.32,0l-.94-.13c.51.07,1,.2,1.47.4l-.85-.36c.44.19.85.43,1.23.72l-.72-.56c.32.25.61.54.86.86l-.56-.72c.23.3.42.62.57.96l-.36-.85c.13.33.22.66.28,1.02l-.13-.94c.04.35.04.7,0,1.05l.13-.94c-.06.38-.16.75-.3,1.1l.36-.85c-.18.42-.42.81-.7,1.18l.56-.72c-.29.36-.62.69-.99.97l.72-.56c-.37.28-.77.51-1.19.7l.85-.36c-.42.18-.86.3-1.31.36l.94-.13c-.38.04-.76.04-1.14,0l.94.13c-.34-.05-.67-.15-1-.28l.85.36c-.31-.14-.6-.31-.87-.52l.72.56c-.29-.23-.54-.49-.77-.78l.56.72c-.26-.35-.48-.72-.65-1.12l.36.85c-.19-.46-.32-.94-.39-1.44l.13.94c-.06-.5-.06-.99,0-1.49l-.13.94c.06-.43.17-.84.34-1.24l-.36.85c.15-.34.33-.65.56-.94l-.56.72c.18-.22.37-.42.58-.6.66-.56,1.04-1.67,1.04-2.51s-.39-1.91-1.04-2.51-1.56-1.08-2.51-1.04-1.76.4-2.51,1.04c-2.38,2.03-3.06,5.64-2.22,8.55.97,3.36,3.84,5.86,7.4,5.96,1.63.05,3.42-.5,4.75-1.43,1.65-1.15,2.83-2.6,3.55-4.48.29-.76.42-1.6.44-2.42.02-.56-.08-1.14-.17-1.69-.04-.25-.1-.5-.19-.73-.4-1.08-.84-1.82-1.55-2.7-.49-.61-1.11-1.07-1.73-1.53-1.37-.99-3.14-1.47-4.81-1.53-.82-.03-1.69.08-2.47.31-1.17.35-1.99.89-2.94,1.63-.67.52-1.04,1.71-1.04,2.51,0,.87.39,1.91,1.04,2.51s1.56,1.08,2.51,1.04l.94-.13c.6-.17,1.12-.47,1.57-.91h0Z"/><path class="cls-2" d="M449.43,133.82c-3.53,2.32-5.07,6.71-4.01,10.77s5.02,6.87,9.27,6.95c1.97.04,4.11-.51,5.76-1.6,1.94-1.29,3.25-3.08,4.04-5.26,1.37-3.8.27-8.52-2.66-11.28-3.6-3.4-8.98-3.98-13.36-1.83-1.67.82-2.26,3.33-1.27,4.86,1.1,1.71,3.07,2.15,4.86,1.27.14-.07.29-.14.43-.2l-.85.36c.64-.27,1.31-.44,1.99-.55l-.94.13c.74-.09,1.48-.1,2.23,0l-.94-.13c.74.1,1.45.29,2.15.58l-.85-.36c.63.27,1.22.62,1.77,1.04l-.72-.56c.46.37.86.78,1.22,1.24l-.56-.72c.34.46.63.96.86,1.49l-.36-.85c.26.63.43,1.29.53,1.97l-.13-.94c.08.68.08,1.36,0,2.04l.13-.94c-.09.62-.25,1.22-.48,1.8l.36-.85c-.22.53-.5,1.02-.85,1.48l.56-.72c-.32.41-.68.77-1.08,1.1l.72-.56c-.45.34-.92.61-1.44.84l.85-.36c-.57.23-1.15.39-1.76.48l.94-.13c-.66.08-1.31.09-1.97,0l.94.13c-.6-.09-1.18-.25-1.74-.48l.85.36c-.46-.21-.89-.45-1.29-.76l.72.56c-.35-.28-.67-.59-.95-.94l.56.72c-.29-.38-.53-.79-.73-1.22l.36.85c-.22-.53-.37-1.08-.45-1.65l.13.94c-.08-.62-.07-1.24.01-1.86l-.13.94c.09-.57.24-1.12.46-1.65l-.36.85c.19-.43.43-.84.71-1.22l-.56.72c.29-.38.62-.71.99-1l-.72.56c.12-.09.23-.17.35-.25,1.55-1.02,2.35-3.19,1.27-4.86-1-1.55-3.2-2.36-4.86-1.27h0Z"/></g><path class="cls-3" d="M393.77,395.33c22.96-12.99,45.95-25.94,68.97-38.84,47.46-26.61,95.03-53.04,142.69-79.27,7.69,14.27,15.38,28.54,23.07,42.81-33.74,19.94-67.99,39.9-102.74,59.84-35.81,20.55-71.36,40.63-106.62,60.25-6.14-9.17-12.31-19.33-18.23-30.52-2.57-4.85-4.94-9.61-7.13-14.27Z"/><path class="cls-1" d="M396.41,399.86c27.44-15.52,54.92-30.99,82.43-46.38,27.5-15.39,55.04-30.73,82.62-46,15.53-8.6,31.07-17.18,46.62-25.74l-7.17-1.88c7.69,14.27,15.38,28.54,23.07,42.81l1.88-7.17c-26.98,15.95-54.04,31.76-81.17,47.43s-54.84,31.48-82.39,47.01c-15.24,8.59-30.51,17.14-45.8,25.65l7.17,1.88c-9.55-14.28-18.03-29.25-25.37-44.79-1.17-2.49-4.94-3.32-7.17-1.88-2.56,1.65-3.14,4.51-1.88,7.17,7.34,15.53,15.82,30.51,25.37,44.79,1.6,2.39,4.57,3.33,7.17,1.88,27.4-15.25,54.73-30.63,81.97-46.15,27.46-15.65,54.85-31.44,82.15-47.37,15.1-8.81,30.18-17.67,45.24-26.57,2.5-1.48,3.23-4.67,1.88-7.17-7.69-14.27-15.38-28.54-23.07-42.81-1.37-2.54-4.76-3.21-7.17-1.88-27.61,15.2-55.19,30.46-82.73,45.78-27.55,15.33-55.06,30.71-82.53,46.17-15.48,8.7-30.94,17.43-46.39,26.17-2.39,1.35-3.4,4.82-1.88,7.17s4.62,3.33,7.17,1.88Z"/><path class="cls-4" d="M645.73,310.6c1.2-.52,13.37-6.02,15.93-18.86,2.4-12.02-4.66-25.32-16.58-29.26-12.41-4.1-23.23,4.22-24.12,4.93,8.26,14.39,16.51,28.79,24.77,43.18Z"/><path class="cls-3" d="M377.08,407.15s5.99,13.13,11.36,22.68c3.09,5.49,7.67,12.8,14.27,20.97-19.04,3.23-38.08,6.47-57.12,9.7,19.17-32.48,31.49-53.35,31.5-53.35Z"/><path class="cls-1" d="M372.55,409.8c5.01,10.98,10.38,21.92,17.07,31.99,2.92,4.39,6.08,8.61,9.38,12.72.77-2.92,1.54-5.84,2.31-8.76-19.04,3.23-38.08,6.47-57.12,9.7l5.92,7.7c9.92-16.8,19.84-33.61,29.76-50.41.58-.98,1.16-1.96,1.74-2.94,1.4-2.36.61-5.86-1.88-7.17s-5.68-.64-7.17,1.88c-6.63,11.23-13.25,22.45-19.88,33.68-3.87,6.56-7.74,13.12-11.61,19.67-1.08,1.82-.86,4.18.41,5.82,1.37,1.77,3.37,2.24,5.51,1.88,19.04-3.23,38.08-6.47,57.12-9.7,1.75-.3,3.21-2.04,3.66-3.66.54-1.96-.14-3.6-1.35-5.1-.36-.44-.71-.89-1.06-1.33-.17-.21-1.06-1.36-.5-.63-.7-.91-1.39-1.83-2.07-2.75-1.22-1.66-2.41-3.34-3.56-5.05-1.97-2.92-3.83-5.91-5.59-8.96-3.57-6.21-6.74-12.64-9.81-19.11-.75-1.58-1.5-3.16-2.22-4.75-1.14-2.5-4.96-3.31-7.17-1.88-2.58,1.67-3.1,4.5-1.88,7.17Z"/><ellipse class="cls-1" cx="357.07" cy="452.82" rx="7.61" ry="7.02"/></svg>